<svg xmlns="http://www.w3.org/2000/svg" viewBox="0 0 1920 1080" role="img" aria-label="Centered private jet cockpit facing a blue sky above clouds">
  <defs>
    <linearGradient id="sky" x1="0" y1="0" x2="0" y2="1"><stop offset="0" stop-color="#73a8da"/><stop offset="0.45" stop-color="#b8d5ee"/><stop offset="1" stop-color="#f7fbff"/></linearGradient>
    <radialGradient id="cloud" cx="50%" cy="72%" r="65%"><stop offset="0" stop-color="#fff"/><stop offset="0.45" stop-color="#e8eef5"/><stop offset="1" stop-color="#b8c7d8"/></radialGradient>
    <linearGradient id="panel" x1="0" y1="0" x2="0" y2="1"><stop offset="0" stop-color="#111b28"/><stop offset="1" stop-color="#050b14"/></linearGradient>
    <linearGradient id="metal" x1="0" y1="0" x2="1" y2="1"><stop offset="0" stop-color="#2a3441"/><stop offset="0.5" stop-color="#111923"/><stop offset="1" stop-color="#050b14"/></linearGradient>
    <filter id="soft"><feGaussianBlur stdDeviation="18"/></filter>
  </defs>
  <rect width="1920" height="1080" fill="#050b14"/>
  <path d="M416 92 Q960 12 1504 92 L1728 570 Q960 650 192 570 Z" fill="url(#sky)"/>
  <g opacity=".92">
    <ellipse cx="600" cy="560" rx="420" ry="94" fill="url(#cloud)"/>
    <ellipse cx="1060" cy="548" rx="520" ry="105" fill="url(#cloud)"/>
    <ellipse cx="1440" cy="590" rx="380" ry="84" fill="url(#cloud)"/>
  </g>
  <path d="M270 86 Q960 -4 1650 86 L1770 610 Q960 706 150 610 Z" fill="none" stroke="#101b28" stroke-width="74"/>
  <path d="M350 118 Q960 48 1570 118 L1682 575 Q960 650 238 575 Z" fill="none" stroke="#283445" stroke-width="16" opacity=".85"/>
  <path d="M930 70 L900 630" stroke="#0a111d" stroke-width="34" opacity=".86"/><path d="M990 70 L1020 630" stroke="#0a111d" stroke-width="34" opacity=".86"/>
  <path d="M0 0 H390 L250 1080 H0 Z" fill="url(#metal)"/><path d="M1920 0 H1530 L1670 1080 H1920 Z" fill="url(#metal)"/>
  <path d="M0 0 H1920 V132 Q960 48 0 132 Z" fill="#07111f" opacity=".98"/>
  <g opacity=".45"><circle cx="760" cy="78" r="12" fill="#c0c7d1"/><circle cx="840" cy="68" r="9" fill="#3b82f6"/><circle cx="1080" cy="68" r="9" fill="#3b82f6"/><circle cx="1160" cy="78" r="12" fill="#c0c7d1"/></g>
  <path d="M220 655 Q960 535 1700 655 L1770 1080 H150 Z" fill="url(#panel)"/>
  <path d="M415 682 Q960 610 1505 682 L1458 880 Q960 836 462 880 Z" fill="#0a1421" stroke="#2d3b4d" stroke-width="8"/>
  <g fill="#101e2e" stroke="#3b82f6" stroke-opacity=".55" stroke-width="3">
    <rect x="525" y="705" width="190" height="100" rx="12"/><rect x="755" y="694" width="190" height="115" rx="12"/><rect x="975" y="694" width="190" height="115" rx="12"/><rect x="1205" y="705" width="190" height="100" rx="12"/>
  </g>
  <g fill="#3b82f6" opacity=".55"><rect x="560" y="735" width="120" height="7" rx="4"/><rect x="790" y="735" width="120" height="7" rx="4"/><rect x="1010" y="735" width="120" height="7" rx="4"/><rect x="1240" y="735" width="120" height="7" rx="4"/></g>
  <path d="M850 842 H1070 L1128 1080 H792 Z" fill="#0a111d" stroke="#344154" stroke-width="5"/>
  <g fill="#c0c7d1"><rect x="906" y="882" width="42" height="110" rx="18"/><rect x="972" y="882" width="42" height="110" rx="18"/></g>
  <path d="M230 760 C190 660 250 540 380 540 C520 540 590 684 520 806 L492 1080 H202 Z" fill="#07111f" stroke="#273445" stroke-width="8"/>
  <path d="M1690 760 C1730 660 1670 540 1540 540 C1400 540 1330 684 1400 806 L1428 1080 H1718 Z" fill="#07111f" stroke="#273445" stroke-width="8"/>
  <path d="M0 850 Q960 760 1920 850 V1080 H0 Z" fill="#050b14" opacity=".92"/>
  <path d="M300 110 Q960 26 1620 110" stroke="#fff" stroke-opacity=".16" stroke-width="7" fill="none"/>
  <rect width="1920" height="1080" fill="none" stroke="#3b82f6" stroke-opacity=".08" stroke-width="2"/>
</svg>
