<svg xmlns="http://www.w3.org/2000/svg" viewBox="0 0 900 1600"><defs><linearGradient id="sky" x1="0" y1="0" x2="0" y2="1"><stop offset="0" stop-color="#72a8d9"/><stop offset=".48" stop-color="#c6ddf1"/><stop offset="1" stop-color="#fff"/></linearGradient><radialGradient id="cloud" cx="50%" cy="66%" r="72%"><stop offset="0" stop-color="#fff"/><stop offset=".55" stop-color="#e9f0f6"/><stop offset="1" stop-color="#b6c6d7"/></radialGradient><linearGradient id="panel" x1="0" y1="0" x2="0" y2="1"><stop offset="0" stop-color="#101b28"/><stop offset="1" stop-color="#050b14"/></linearGradient></defs><rect width="900" height="1600" fill="#050b14"/><path d="M150 120 Q450 62 750 120 L850 850 Q450 960 50 850 Z" fill="url(#sky)"/><ellipse cx="320" cy="780" rx="310" ry="90" fill="url(#cloud)"/><ellipse cx="610" cy="805" rx="360" ry="100" fill="url(#cloud)"/><path d="M70 90 Q450 16 830 90 L895 920 Q450 1050 5 920 Z" fill="none" stroke="#0a111d" stroke-width="58"/><path d="M430 80 L405 930" stroke="#07111f" stroke-width="24"/><path d="M470 80 L495 930" stroke="#07111f" stroke-width="24"/><path d="M0 0 H150 L95 1600 H0 Z" fill="#07111f"/><path d="M900 0 H750 L805 1600 H900 Z" fill="#07111f"/><path d="M0 0 H900 V155 Q450 80 0 155 Z" fill="#07111f"/><path d="M65 970 Q450 850 835 970 L900 1600 H0 Z" fill="url(#panel)"/><path d="M205 1000 Q450 940 695 1000 L665 1255 Q450 1210 235 1255 Z" fill="#0b1421" stroke="#344154" stroke-width="6"/><g fill="#101e2e" stroke="#3b82f6" stroke-opacity=".55" stroke-width="3"><rect x="260" y="1030" width="145" height="90" rx="10"/><rect x="495" y="1030" width="145" height="90" rx="10"/></g><path d="M370 1190 H530 L585 1600 H315 Z" fill="#07111f" stroke="#344154" stroke-width="5"/><path d="M75 1110 C35 1010 90 900 205 900 C330 900 390 1035 320 1165 L295 1600 H55 Z" fill="#07111f" stroke="#273445" stroke-width="8"/><path d="M825 1110 C865 1010 810 900 695 900 C570 900 510 1035 580 1165 L605 1600 H845 Z" fill="#07111f" stroke="#273445" stroke-width="8"/></svg>
